<svg xmlns="http://www.w3.org/2000/svg" width="18" height="18" viewBox="0 0 18 18">
    <path fill="#000" fill-rule="nonzero" d="M6.544 0C2.934 0 0 2.93 0 6.535s2.935 6.535 6.544 6.535a6.563 6.563 0 0 0 4.448-1.744l6.613 6.604c.046.046.116.07.163.07a.253.253 0 0 0 .162-.07.225.225 0 0 0 0-.325l-6.612-6.629a6.438 6.438 0 0 0 1.746-4.442C13.087 2.931 10.154 0 6.544 0zm4.354 10.767c-.024 0-.046.024-.07.047-.024.023-.024.046-.046.07a6.027 6.027 0 0 1-4.238 1.72c-3.354 0-6.078-2.72-6.078-6.069 0-3.35 2.724-6.07 6.078-6.07 3.353 0 6.078 2.72 6.078 6.07 0 1.65-.653 3.14-1.724 4.232z"/>
</svg>
