<svg xmlns="http://www.w3.org/2000/svg" width="18" height="18" viewBox="0 0 18 18">
    <path fill="#000" fill-rule="nonzero" d="M14.513 17.998c-.871 0-1.793-.215-2.747-.438-.98-.229-1.987-.465-2.984-.465-.996 0-1.975.242-2.923.477-1.946.484-3.782.941-5.354-.985l-.114-.165.03-.188c.44-2.924 1.936-5.278 4.214-6.622l.286-.169.232.245a5.242 5.242 0 0 0 3.846 1.693 5.242 5.242 0 0 0 3.846-1.693l.228-.245.29.169c2.28 1.348 3.777 3.7 4.216 6.622l.03.2-.124.153a3.582 3.582 0 0 1-2.972 1.41zm-5.721-1.295c1.04 0 2.072.241 3.068.476 2.092.49 3.899.913 5.329-.843l.014-.016v-.018c-.422-2.81-1.852-5.057-4.028-6.343l-.028-.016-.021.024a5.63 5.63 0 0 1-4.12 1.806 5.63 5.63 0 0 1-4.12-1.806l-.024-.024-.027.016c-2.188 1.286-3.618 3.538-4.038 6.343v.02l.014.016c1.415 1.736 3.06 1.326 4.968.853.959-.239 1.956-.488 3.013-.488zm.206-6.076c-2.87 0-5.195-2.379-5.195-5.313C3.803 2.379 6.129 0 8.998 0c2.87 0 5.195 2.379 5.195 5.314-.003 2.933-2.327 5.31-5.195 5.313zm0-10.234c-1.947 0-3.702 1.2-4.446 3.04a5.005 5.005 0 0 0 1.044 5.364 4.734 4.734 0 0 0 5.245 1.066c1.798-.763 2.97-2.558 2.97-4.55C13.808 2.597 11.655.394 8.998.39v.004z"/>
</svg>
